<svg width="35" height="35" viewBox="0 0 35 35" fill="none" xmlns="http://www.w3.org/2000/svg">
<path d="M11.5 9.5C4.83333 14.8333 4.16667 22.1667 9.5 31.5M23.5 25.5C30.1667 20.1667 30.8333 12.9769 25.5 3.64355M17.5 1.5C13.2565 1.5 9.18687 3.18571 6.18629 6.18629C3.18571 9.18687 1.5 13.2565 1.5 17.5C1.5 21.7435 3.18571 25.8131 6.18629 28.8137C9.18687 31.8143 13.2565 33.5 17.5 33.5C21.7435 33.5 25.8131 31.8143 28.8137 28.8137C31.8143 25.8131 33.5 21.7435 33.5 17.5C33.5 13.2565 31.8143 9.18687 28.8137 6.18629C25.8131 3.18571 21.7435 1.5 17.5 1.5ZM17.5 7.5C14.8478 7.5 12.3043 8.55357 10.4289 10.4289C8.55357 12.3043 7.5 14.8478 7.5 17.5C7.5 20.1522 8.55357 22.6957 10.4289 24.5711C12.3043 26.4464 14.8478 27.5 17.5 27.5C20.1522 27.5 22.6957 26.4464 24.5711 24.5711C26.4464 22.6957 27.5 20.1522 27.5 17.5C27.5 14.8478 26.4464 12.3043 24.5711 10.4289C22.6957 8.55357 20.1522 7.5 17.5 7.5Z" stroke="#7C86FF" stroke-width="3" stroke-linejoin="round"/>
</svg>
